<svg width="57" height="65" viewBox="0 0 57 65" fill="none" xmlns="http://www.w3.org/2000/svg">
<path d="M56.0236 10.4197V16.4197C56.0236 21.9447 43.5875 26.4197 28.25 26.4197C12.9125 26.4197 0.47641 21.9447 0.47641 16.4197V10.4197C0.47641 4.89468 12.9125 0.419678 28.25 0.419678C43.5875 0.419678 56.0236 4.89468 56.0236 10.4197ZM49.229 27.2572C51.8079 26.3322 54.1761 25.1447 56.0236 23.6822V36.4197C56.0236 41.9447 43.5875 46.4197 28.25 46.4197C12.9125 46.4197 0.47641 41.9447 0.47641 36.4197V23.6822C2.32385 25.1572 4.69204 26.3322 7.27102 27.2572C12.8381 29.2572 20.2527 30.4197 28.25 30.4197C36.2473 30.4197 43.6619 29.2572 49.229 27.2572ZM0.47641 43.6822C2.32385 45.1572 4.69204 46.3322 7.27102 47.2572C12.8381 49.2572 20.2527 50.4197 28.25 50.4197C36.2473 50.4197 43.6619 49.2572 49.229 47.2572C51.8079 46.3322 54.1761 45.1447 56.0236 43.6822V54.4197C56.0236 59.9447 43.5875 64.4197 28.25 64.4197C12.9125 64.4197 0.47641 59.9447 0.47641 54.4197V43.6822Z" fill="white"/>
</svg>
