<svg width="30" height="65" viewBox="0 0 30 65" fill="none" xmlns="http://www.w3.org/2000/svg">
<path d="M20.5533 7.55291C17.87 4.36599 15.5594 1.12927 15.0873 0.457025C15.0376 0.407229 14.963 0.407229 14.9134 0.457025C14.4413 1.12927 12.1306 4.36599 9.4473 7.55291C-13.5846 36.9572 13.0748 56.8009 13.0748 56.8009L13.2984 56.9504C13.4971 60.0126 13.9941 64.4197 13.9941 64.4197H14.9879H15.9817C15.9817 64.4197 16.4786 60.0375 16.6774 56.9504L16.901 56.776C16.9258 56.8009 43.5854 36.9572 20.5533 7.55291ZM14.9879 56.3527C14.9879 56.3527 13.7953 55.3319 13.4723 54.8092V54.7592L14.9134 22.7406C14.9134 22.641 15.0625 22.641 15.0625 22.7406L16.5035 54.7592V54.8092C16.1805 55.3319 14.9879 56.3527 14.9879 56.3527Z" fill="#108B4B"/>
</svg>
