<svg width="57" height="65" viewBox="0 0 57 65" fill="none" xmlns="http://www.w3.org/2000/svg">
<path d="M28.7505 64.4197C27.8739 64.4197 27.0557 64.1845 26.2962 63.7728L18.5245 59.128C17.356 58.4812 17.9403 58.246 18.2909 58.1284C19.8687 57.5991 20.1606 57.4815 21.7967 56.5409C21.9721 56.4233 22.206 56.4822 22.3813 56.5998L28.3415 60.1863C28.5751 60.3039 28.8671 60.3039 29.0425 60.1863L52.3579 46.6041C52.59 46.4866 52.7091 46.2514 52.7091 45.9576V18.8522C52.7091 18.5584 52.59 18.3232 52.3579 18.2057L29.0425 4.68245C28.8088 4.56486 28.5165 4.56486 28.3415 4.68245L5.02666 18.2057C4.79272 18.3232 4.67605 18.6171 4.67605 18.8522V45.9576C4.67605 46.1928 4.79272 46.4866 5.02666 46.6041L11.3958 50.3085C14.8434 52.0723 17.0054 50.0144 17.0054 47.9565V21.2042C17.0054 20.8515 17.2974 20.4987 17.7066 20.4987H20.6866C21.0372 20.4987 21.3878 20.7925 21.3878 21.2042V47.9565C21.3878 52.6016 18.8752 55.3061 14.4927 55.3061C13.1489 55.3061 12.0971 55.3061 9.1168 53.8364L2.98129 50.3085C1.46215 49.4265 0.527283 47.7803 0.527283 46.0162V18.9112C0.527283 17.1471 1.46215 15.5009 2.98129 14.6188L26.2962 1.037C27.757 0.213904 29.7437 0.213904 31.2045 1.037L54.5202 14.6188C56.0382 15.5009 56.9727 17.1471 56.9727 18.9112V46.0162C56.9727 47.7803 56.0382 49.4265 54.5202 50.3085L31.2045 63.8904C30.5032 64.1845 29.627 64.4197 28.7505 64.4197Z" fill="#5FA04E"/>
<path d="M35.9968 45.7808C25.7696 45.7808 23.6662 41.0771 23.6662 37.0789C23.6662 36.7261 23.9582 36.3734 24.3672 36.3734H27.4057C27.7564 36.3734 28.0486 36.6085 28.0486 36.9613C28.5159 40.0775 29.8601 41.6064 36.0548 41.6064C40.9629 41.6064 43.0672 40.4891 43.0672 37.8433C43.0672 36.3147 42.4808 35.1975 34.8267 34.4331C28.4576 33.7862 24.4841 32.3752 24.4841 27.2598C24.4841 22.4974 28.4576 19.675 35.119 19.675C42.5999 19.675 46.2801 22.2622 46.7474 27.9066C46.7474 28.0832 46.6894 28.2594 46.5733 28.4359C46.4542 28.5535 46.2801 28.6711 46.103 28.6711H43.0061C42.7159 28.6711 42.4227 28.4359 42.3647 28.1418C41.6623 24.908 39.8511 23.8498 35.0607 23.8498C29.6848 23.8498 29.0418 25.7311 29.0418 27.1422C29.0418 28.8473 29.8014 29.3766 37.0474 30.3173C44.2338 31.258 47.624 32.6103 47.624 37.6668C47.624 42.8409 43.3573 45.7808 35.9968 45.7808Z" fill="#5FA04E"/>
</svg>
