<svg width="65" height="65" viewBox="0 0 65 65" fill="none" xmlns="http://www.w3.org/2000/svg">
<path fill-rule="evenodd" clip-rule="evenodd" d="M2.5 0.419678H62.5C63.8434 0.419678 64.9324 1.49419 64.9324 2.81968V62.0197C64.9324 63.3452 63.8434 64.4197 62.5 64.4197H2.5C1.1566 64.4197 0.0675659 63.3452 0.0675659 62.0197V2.81968C0.0675659 1.49419 1.1566 0.419678 2.5 0.419678ZM36.1255 34.4687V29.2197H13.0405V34.4687H21.2823V57.84H27.8434V34.4687H36.1255ZM38.7413 57.2229C39.7993 57.7551 41.0507 58.1543 42.4952 58.4204C43.94 58.6865 45.4625 58.8197 47.0632 58.8197C48.6232 58.8197 50.1049 58.6732 51.509 58.3805C52.9129 58.0879 54.1438 57.6054 55.2018 56.9334C56.2598 56.2614 57.0975 55.3834 57.7147 54.2988C58.3319 53.2143 58.6405 51.8737 58.6405 50.2769C58.6405 49.1192 58.4641 48.1048 58.1113 47.2332C57.7588 46.3616 57.2502 45.5864 56.5854 44.9078C55.9208 44.2292 55.1238 43.6204 54.1946 43.0816C53.2654 42.5428 52.2177 42.0337 51.0512 41.5547C50.1965 41.2086 49.43 40.8726 48.7519 40.5467C48.0736 40.2208 47.4971 39.888 47.0225 39.5488C46.5476 39.2093 46.1816 38.8502 45.9238 38.4709C45.666 38.0918 45.5372 37.6625 45.5372 37.1835C45.5372 36.7444 45.6524 36.3485 45.8831 35.996C46.1137 35.6433 46.4391 35.3405 46.8597 35.0877C47.2803 34.8349 47.7956 34.6388 48.4061 34.4989C49.0164 34.3594 49.6947 34.2895 50.4407 34.2895C50.9834 34.2895 51.5564 34.3293 52.16 34.4091C52.7636 34.4891 53.3707 34.6122 53.981 34.7783C54.5915 34.9447 55.185 35.1542 55.7615 35.4072C56.338 35.66 56.8703 35.9527 57.3587 36.2853V30.3175C56.3683 29.9448 55.2866 29.6687 54.1132 29.4892C52.94 29.3095 51.5936 29.2197 50.0744 29.2197C48.5282 29.2197 47.0632 29.3826 45.6796 29.7088C44.296 30.0347 43.0786 30.5437 42.0273 31.2357C40.9759 31.9276 40.1451 32.8091 39.5349 33.8801C38.9243 34.9514 38.6192 36.2321 38.6192 37.7223C38.6192 39.6253 39.1786 41.2487 40.2978 42.5925C41.417 43.9365 43.1158 45.0742 45.3946 46.0056C46.2901 46.365 47.1241 46.7175 47.8974 47.0636C48.6705 47.4095 49.3385 47.7689 49.9014 48.1413C50.4644 48.514 50.9086 48.9196 51.2342 49.3588C51.5598 49.7979 51.7226 50.2968 51.7226 50.8559C51.7226 51.2684 51.6208 51.6509 51.4173 52.0034C51.2138 52.3562 50.9052 52.6621 50.4915 52.9216C50.0778 53.181 49.5625 53.3841 48.9453 53.5303C48.3281 53.6768 47.6056 53.7499 46.7783 53.7499C45.3675 53.7499 43.9703 53.5072 42.5867 53.0215C41.2034 52.5359 39.9214 51.8073 38.7413 50.8359V57.2229Z" fill="#3178C6"/>
</svg>
